# 3ds Max Wavefront OBJ Exporter v0.97b - (c)2007 guruware
# File Created: 24.04.2015 21:23:24

#
# object disk2
#

v  1.8547 0.0000 1.7520
v  1.7957 0.0000 1.7717
v  1.7957 0.0000 -1.7717
v  1.8547 0.0000 -1.7520
v  1.8744 0.0000 -1.6929
v  1.8744 0.0000 1.6929
v  1.8744 0.1181 -1.6929
v  1.8744 0.1181 1.6929
v  -1.6366 0.0000 -1.7717
v  -1.6366 0.1181 -1.7717
v  1.7957 0.1181 -1.7717
v  -1.8294 0.0000 -1.5800
v  -1.8294 0.0000 1.6929
v  -1.8294 0.1181 1.6929
v  -1.8294 0.1181 -1.5800
v  -1.7507 0.0000 1.7717
v  1.7957 0.1181 1.7717
v  -1.7507 0.1181 1.7717
v  1.8547 0.1181 -1.7520
v  1.8547 0.1181 1.7520
v  -1.8097 0.0000 1.7520
v  -1.8097 0.1181 1.7520
v  1.4722 0.1181 -1.6642
v  1.6140 0.1181 -1.6642
v  1.4722 0.1181 -1.4821
v  1.6140 0.1181 -1.4821
v  1.4722 0.0000 -1.4821
v  1.6140 0.0000 -1.4821
v  1.4722 0.0000 -1.6642
v  1.6140 0.0000 -1.6642
# 30 vertices

vn 0.0000 -1.0000 -0.0000
vn 0.9871 0.0000 0.1602
vn 0.9871 0.0000 -0.1602
vn 0.1602 0.0000 -0.9871
vn 0.0000 0.0000 -1.0000
vn -1.0000 0.0000 -0.0000
vn -0.9871 0.0000 0.1602
vn -0.1602 0.0000 0.9871
vn 0.1602 0.0000 0.9871
vn 0.7071 0.0000 -0.7071
vn 0.7071 0.0000 0.7071
vn -0.7049 0.0000 -0.7093
vn -0.7071 0.0000 0.7071
vn 0.0000 1.0000 -0.0000
vn -0.0000 0.0000 1.0000
vn 1.0000 0.0000 0.0000
# 16 vertex normals

vt 0.0289 0.9930 0.0000
vt 0.0264 0.9854 0.0000
vt 0.4833 0.9854 0.0000
vt 0.4807 0.9930 0.0000
vt 0.4731 0.9955 0.0000
vt 0.0365 0.9955 0.0000
vt 0.0365 0.0036 0.0000
vt 0.4731 0.0036 0.0000
vt 0.4731 0.0188 0.0000
vt 0.0365 0.0188 0.0000
vt 0.5009 0.0321 0.0000
vt 0.5009 0.4747 0.0000
vt 0.4856 0.4747 0.0000
vt 0.4856 0.0321 0.0000
vt 0.4586 0.5160 0.0000
vt 0.0365 0.5160 0.0000
vt 0.0365 0.5008 0.0000
vt 0.4586 0.5008 0.0000
vt 0.0061 0.4886 0.0000
vt 0.0061 0.0313 0.0000
vt 0.0213 0.0313 0.0000
vt 0.0213 0.4886 0.0000
vt 0.4807 0.0036 0.0000
vt 0.4807 0.0188 0.0000
vt 0.0289 0.0188 0.0000
vt 0.0289 0.0036 0.0000
vt 0.5009 0.4996 0.0000
vt 0.4856 0.4996 0.0000
vt 0.0289 0.5160 0.0000
vt 0.0289 0.5008 0.0000
vt 0.4856 0.0245 0.0000
vt 0.5009 0.0245 0.0000
vt 0.0061 0.0237 0.0000
vt 0.0213 0.0237 0.0000
vt 0.0213 0.4962 0.0000
vt 0.0061 0.4962 0.0000
vt 0.0289 0.5204 0.0000
vt 0.0365 0.5179 0.0000
vt 0.4586 0.5179 0.0000
vt 0.4833 0.5428 0.0000
vt 0.0264 0.5281 0.0000
vt 0.0365 0.4996 0.0000
vt 0.0289 0.4970 0.0000
vt 0.0264 0.4894 0.0000
vt 0.4586 0.4996 0.0000
vt 0.4833 0.4747 0.0000
vt 0.0289 0.0245 0.0000
vt 0.0365 0.0219 0.0000
vt 0.4731 0.0219 0.0000
vt 0.4807 0.0245 0.0000
vt 0.4833 0.0321 0.0000
vt 0.0264 0.0321 0.0000
vt 0.4694 0.0738 0.0000
vt 0.4694 0.0555 0.0000
vt 0.4459 0.0738 0.0000
vt 0.4459 0.0555 0.0000
vt 0.4459 0.9437 0.0000
vt 0.4459 0.9620 0.0000
vt 0.4694 0.9437 0.0000
vt 0.4694 0.9620 0.0000
vt 0.0219 0.5080 0.0000
vt 0.0219 0.5262 0.0000
vt 0.0067 0.5262 0.0000
vt 0.0067 0.5080 0.0000
vt 0.0213 0.5393 0.0000
vt 0.0213 0.5628 0.0000
vt 0.0060 0.5628 0.0000
vt 0.0060 0.5393 0.0000
vt 0.0233 0.5719 0.0000
vt 0.0233 0.5901 0.0000
vt 0.0081 0.5901 0.0000
vt 0.0081 0.5719 0.0000
vt 0.0202 0.7265 0.0000
vt 0.0202 0.7500 0.0000
vt 0.0049 0.7500 0.0000
vt 0.0049 0.7265 0.0000
# 76 texture coords

g disk2
s 2
f 1/1/1 2/2/1 3/3/1 
f 3/3/1 4/4/1 5/5/1 
f 1/1/1 3/3/1 5/5/1 
f 6/6/1 1/1/1 5/5/1 
s 134217728
f 6/7/2 5/8/3 7/9/3 
f 7/9/3 8/10/2 6/7/2 
f 3/11/4 9/12/5 10/13/5 
f 10/13/5 11/14/4 3/11/4 
f 12/15/6 13/16/7 14/17/7 
f 14/17/7 15/18/6 12/15/6 
f 16/19/8 2/20/9 17/21/9 
f 17/21/9 18/22/8 16/19/8 
f 4/23/10 19/24/10 7/9/3 
f 7/9/3 5/8/3 4/23/10 
f 20/25/11 1/26/11 6/7/2 
f 6/7/2 8/10/2 20/25/11 
s 524288
f 9/12/12 12/27/12 15/28/12 
f 15/28/12 10/13/12 9/12/12 
s 134217728
f 21/29/13 22/30/13 14/17/7 
f 14/17/7 13/16/7 21/29/13 
f 3/11/4 11/14/4 19/31/10 
f 19/31/10 4/32/10 3/11/4 
f 17/21/9 2/20/9 1/33/11 
f 1/33/11 20/34/11 17/21/9 
f 16/19/8 18/22/8 22/35/13 
f 22/35/13 21/36/13 16/19/8 
s 2
f 21/37/1 13/38/1 12/39/1 
f 21/37/1 12/39/1 9/40/1 
f 16/41/1 21/37/1 9/40/1 
s 4
f 14/42/14 22/43/14 18/44/14 
f 15/45/14 14/42/14 18/44/14 
f 10/46/14 15/45/14 18/44/14 
f 20/47/14 8/48/14 7/49/14 
f 7/49/14 19/50/14 11/51/14 
f 20/47/14 7/49/14 11/51/14 
f 17/52/14 20/47/14 11/51/14 
s off
f 11/51/14 10/46/14 23/53/14 
f 23/53/14 24/54/14 11/51/14 
f 10/46/14 18/44/14 25/55/14 
f 25/55/14 23/53/14 10/46/14 
f 18/44/14 17/52/14 26/56/14 
f 26/56/14 25/55/14 18/44/14 
f 17/52/14 11/51/14 24/54/14 
f 24/54/14 26/56/14 17/52/14 
f 2/2/1 16/41/1 27/57/1 
f 27/57/1 28/58/1 2/2/1 
f 16/41/1 9/40/1 29/59/1 
f 29/59/1 27/57/1 16/41/1 
f 9/40/1 3/3/1 30/60/1 
f 30/60/1 29/59/1 9/40/1 
f 3/3/1 2/2/1 28/58/1 
f 28/58/1 30/60/1 3/3/1 
s 1
f 24/61/15 23/62/15 29/63/15 
f 29/63/15 30/64/15 24/61/15 
s 2
f 23/65/16 25/66/16 27/67/16 
f 27/67/16 29/68/16 23/65/16 
s 1
f 25/69/5 26/70/5 28/71/5 
f 28/71/5 27/72/5 25/69/5 
s 2
f 26/73/6 24/74/6 30/75/6 
f 30/75/6 28/76/6 26/73/6 
# 60 faces

